<?xml version="1.0" encoding="us-ascii" standalone="no"?><svg xmlns="http://www.w3.org/2000/svg" xmlns:xlink="http://www.w3.org/1999/xlink" contentStyleType="text/css" height="1094.3426px" preserveAspectRatio="none" style="width:1801px;height:1094px;background:#FFFFFF;" version="1.1" viewBox="0 0 1801 1094" width="1801.4343px" zoomAndPan="magnify"><defs/><g><text fill="#000000" font-family="sans-serif" font-size="20.0797" font-weight="bold" lengthAdjust="spacing" textLength="651.1554" x="532.1116" y="78.215">EduSphere - Timing Diagram (Authentication &amp; Session Lifecycle)</text><line style="stroke:#333333;stroke-width:0.7171314741035856;" x1="14.3426" x2="14.3426" y1="127.0891" y2="1021.5762"/><line style="stroke:#333333;stroke-width:0.7171314741035856;" x1="1702.4701" x2="1702.4701" y1="127.0891" y2="1021.5762"/><line style="stroke:#333333;stroke-width:0.7171314741035856;stroke-dasharray:3.0,5.0;" x1="189.3227" x2="189.3227" y1="127.0891" y2="1021.5762"/><line style="stroke:#333333;stroke-width:0.7171314741035856;stroke-dasharray:3.0,5.0;" x1="261.0359" x2="261.0359" y1="127.0891" y2="1021.5762"/><line style="stroke:#333333;stroke-width:0.7171314741035856;stroke-dasharray:3.0,5.0;" x1="332.749" x2="332.749" y1="127.0891" y2="1021.5762"/><line style="stroke:#333333;stroke-width:0.7171314741035856;stroke-dasharray:3.0,5.0;" x1="404.4622" x2="404.4622" y1="127.0891" y2="1021.5762"/><line style="stroke:#333333;stroke-width:0.7171314741035856;stroke-dasharray:3.0,5.0;" x1="476.1753" x2="476.1753" y1="127.0891" y2="1021.5762"/><line style="stroke:#333333;stroke-width:0.7171314741035856;stroke-dasharray:3.0,5.0;" x1="547.8884" x2="547.8884" y1="127.0891" y2="1021.5762"/><line style="stroke:#333333;stroke-width:0.7171314741035856;stroke-dasharray:3.0,5.0;" x1="619.6016" x2="619.6016" y1="127.0891" y2="1021.5762"/><line style="stroke:#333333;stroke-width:0.7171314741035856;stroke-dasharray:3.0,5.0;" x1="691.3147" x2="691.3147" y1="127.0891" y2="1021.5762"/><line style="stroke:#333333;stroke-width:0.7171314741035856;stroke-dasharray:3.0,5.0;" x1="763.0279" x2="763.0279" y1="127.0891" y2="1021.5762"/><line style="stroke:#333333;stroke-width:0.7171314741035856;stroke-dasharray:3.0,5.0;" x1="834.741" x2="834.741" y1="127.0891" y2="1021.5762"/><line style="stroke:#333333;stroke-width:0.7171314741035856;stroke-dasharray:3.0,5.0;" x1="906.4542" x2="906.4542" y1="127.0891" y2="1021.5762"/><line style="stroke:#333333;stroke-width:0.7171314741035856;stroke-dasharray:3.0,5.0;" x1="978.1673" x2="978.1673" y1="127.0891" y2="1021.5762"/><line style="stroke:#333333;stroke-width:0.7171314741035856;stroke-dasharray:3.0,5.0;" x1="1049.8805" x2="1049.8805" y1="127.0891" y2="1021.5762"/><line style="stroke:#333333;stroke-width:0.7171314741035856;stroke-dasharray:3.0,5.0;" x1="1121.5936" x2="1121.5936" y1="127.0891" y2="1021.5762"/><line style="stroke:#333333;stroke-width:0.7171314741035856;stroke-dasharray:3.0,5.0;" x1="1193.3068" x2="1193.3068" y1="127.0891" y2="1021.5762"/><line style="stroke:#333333;stroke-width:0.7171314741035856;stroke-dasharray:3.0,5.0;" x1="1265.0199" x2="1265.0199" y1="127.0891" y2="1021.5762"/><line style="stroke:#333333;stroke-width:0.7171314741035856;stroke-dasharray:3.0,5.0;" x1="1336.7331" x2="1336.7331" y1="127.0891" y2="1021.5762"/><line style="stroke:#333333;stroke-width:0.7171314741035856;stroke-dasharray:3.0,5.0;" x1="1408.4462" x2="1408.4462" y1="127.0891" y2="1021.5762"/><line style="stroke:#333333;stroke-width:0.7171314741035856;stroke-dasharray:3.0,5.0;" x1="1480.1594" x2="1480.1594" y1="127.0891" y2="1021.5762"/><line style="stroke:#333333;stroke-width:0.7171314741035856;stroke-dasharray:3.0,5.0;" x1="1551.8725" x2="1551.8725" y1="127.0891" y2="1021.5762"/><line style="stroke:#333333;stroke-width:0.7171314741035856;stroke-dasharray:3.0,5.0;" x1="1623.5857" x2="1623.5857" y1="127.0891" y2="1021.5762"/><line style="stroke:#333333;stroke-width:0.7171314741035856;stroke-dasharray:3.0,5.0;" x1="1695.2988" x2="1695.2988" y1="127.0891" y2="1021.5762"/><line style="stroke:#333333;stroke-width:0.7171314741035856;" x1="14.3426" x2="1702.4701" y1="127.0891" y2="127.0891"/><text fill="#333333" font-family="sans-serif" font-size="20.0797" font-weight="bold" lengthAdjust="spacing" textLength="47.3307" x="50.1992" y="176.6188">User</text><line style="stroke:#333333;stroke-width:0.7171314741035856;" x1="14.3426" x2="127.6494" y1="211.1504" y2="211.1504"/><line style="stroke:#333333;stroke-width:0.7171314741035856;" x1="127.6494" x2="141.992" y1="211.1504" y2="127.0891"/><text fill="#333333" font-family="sans-serif" font-size="17.2112" lengthAdjust="spacing" textLength="28.6853" x="50.1992" y="312.8542">Idle</text><text fill="#333333" font-family="sans-serif" font-size="17.2112" lengthAdjust="spacing" textLength="110.4382" x="50.1992" y="284.1689">Authenticating</text><text fill="#333333" font-family="sans-serif" font-size="17.2112" lengthAdjust="spacing" textLength="74.5817" x="50.1992" y="255.4837">LoggedIn</text><text fill="#333333" font-family="sans-serif" font-size="17.2112" lengthAdjust="spacing" textLength="91.7928" x="50.1992" y="226.7984">LoggingOut</text><line style="stroke:#006400;stroke-width:2.8685258964143423;" x1="189.3227" x2="261.0359" y1="304.3775" y2="304.3775"/><line style="stroke:#006400;stroke-width:2.8685258964143423;" x1="261.0359" x2="1049.8805" y1="275.6922" y2="275.6922"/><line style="stroke:#006400;stroke-width:2.8685258964143423;" x1="1049.8805" x2="1121.5936" y1="247.007" y2="247.007"/><line style="stroke:#006400;stroke-width:2.8685258964143423;" x1="1121.5936" x2="1623.5857" y1="218.3217" y2="218.3217"/><line style="stroke:#006400;stroke-width:2.8685258964143423;" x1="1623.5857" x2="1695.2988" y1="304.3775" y2="304.3775"/><line style="stroke:#006400;stroke-width:2.8685258964143423;" x1="261.0359" x2="261.0359" y1="275.6922" y2="304.3775"/><line style="stroke:#006400;stroke-width:2.8685258964143423;" x1="1049.8805" x2="1049.8805" y1="247.007" y2="275.6922"/><line style="stroke:#006400;stroke-width:2.8685258964143423;" x1="1121.5936" x2="1121.5936" y1="218.3217" y2="247.007"/><line style="stroke:#006400;stroke-width:2.8685258964143423;" x1="1623.5857" x2="1623.5857" y1="218.3217" y2="304.3775"/><line style="stroke:#333333;stroke-width:0.7171314741035856;" x1="14.3426" x2="1702.4701" y1="321.5886" y2="321.5886"/><text fill="#333333" font-family="sans-serif" font-size="20.0797" font-weight="bold" lengthAdjust="spacing" textLength="20.0797" x="50.1992" y="371.1183">UI</text><line style="stroke:#333333;stroke-width:0.7171314741035856;" x1="14.3426" x2="100.3984" y1="405.6499" y2="405.6499"/><line style="stroke:#333333;stroke-width:0.7171314741035856;" x1="100.3984" x2="114.741" y1="405.6499" y2="321.5886"/><polygon fill="#E2E2F0" points="206.5339,412.8212,243.8247,412.8212,261.0359,430.0324,243.8247,447.2435,206.5339,447.2435,189.3227,430.0324" style="stroke:#006400;stroke-width:2.151394422310757;"/><polygon fill="#E2E2F0" points="278.247,412.8212,960.9562,412.8212,978.1673,430.0324,960.9562,447.2435,278.247,447.2435,261.0359,430.0324" style="stroke:#006400;stroke-width:2.151394422310757;"/><polygon fill="#E2E2F0" points="995.3785,412.8212,1104.3825,412.8212,1121.5936,430.0324,1104.3825,447.2435,995.3785,447.2435,978.1673,430.0324" style="stroke:#006400;stroke-width:2.151394422310757;"/><polygon fill="#E2E2F0" points="1138.8048,412.8212,1534.6614,412.8212,1551.8725,430.0324,1534.6614,447.2435,1138.8048,447.2435,1121.5936,430.0324" style="stroke:#006400;stroke-width:2.151394422310757;"/><polygon fill="#E2E2F0" points="1569.0837,412.8212,1695.2988,412.8212,1695.2988,447.2435,1569.0837,447.2435,1551.8725,430.0324" style="stroke:#E2E2F0;stroke-width:2.151394422310757;"/><path d="M1695.2988,412.8212 L1569.0837,412.8212 L1551.8725,430.0324 L1569.0837,447.2435 L1695.2988,447.2435 " fill="#E2E2F0" style="stroke:#006400;stroke-width:2.151394422310757;"/><text fill="#333333" font-family="sans-serif" font-size="17.2112" font-weight="bold" lengthAdjust="spacing" textLength="61.6733" x="194.3426" y="437.0748">Waiting</text><text fill="#333333" font-family="sans-serif" font-size="17.2112" font-weight="bold" lengthAdjust="spacing" textLength="93.2271" x="572.988" y="437.0748">Processing</text><text fill="#333333" font-family="sans-serif" font-size="17.2112" font-weight="bold" lengthAdjust="spacing" textLength="153.4661" x="973.1474" y="437.0748">DashboardLoading</text><text fill="#333333" font-family="sans-serif" font-size="17.2112" font-weight="bold" lengthAdjust="spacing" textLength="93.2271" x="1290.1195" y="437.0748">Processing</text><text fill="#333333" font-family="sans-serif" font-size="17.2112" font-weight="bold" lengthAdjust="spacing" textLength="61.6733" x="1597.7689" y="437.0748">Waiting</text><line style="stroke:#333333;stroke-width:0.7171314741035856;" x1="14.3426" x2="1702.4701" y1="461.5862" y2="461.5862"/><text fill="#333333" font-family="sans-serif" font-size="20.0797" font-weight="bold" lengthAdjust="spacing" textLength="147.7291" x="50.1992" y="511.1158">AuthController</text><line style="stroke:#333333;stroke-width:0.7171314741035856;" x1="14.3426" x2="228.0478" y1="545.6474" y2="545.6474"/><line style="stroke:#333333;stroke-width:0.7171314741035856;" x1="228.0478" x2="242.3904" y1="545.6474" y2="461.5862"/><polygon fill="#E2E2F0" points="206.5339,552.8187,315.5378,552.8187,332.749,570.0299,315.5378,587.241,206.5339,587.241,189.3227,570.0299" style="stroke:#006400;stroke-width:2.151394422310757;"/><polygon fill="#E2E2F0" points="349.9602,552.8187,674.1036,552.8187,691.3147,570.0299,674.1036,587.241,349.9602,587.241,332.749,570.0299" style="stroke:#006400;stroke-width:2.151394422310757;"/><polygon fill="#E2E2F0" points="708.5259,552.8187,1176.0956,552.8187,1193.3068,570.0299,1176.0956,587.241,708.5259,587.241,691.3147,570.0299" style="stroke:#006400;stroke-width:2.151394422310757;"/><polygon fill="#E2E2F0" points="1210.5179,552.8187,1695.2988,552.8187,1695.2988,587.241,1210.5179,587.241,1193.3068,570.0299" style="stroke:#E2E2F0;stroke-width:2.151394422310757;"/><path d="M1695.2988,552.8187 L1210.5179,552.8187 L1193.3068,570.0299 L1210.5179,587.241 L1695.2988,587.241 " fill="#E2E2F0" style="stroke:#006400;stroke-width:2.151394422310757;"/><text fill="#333333" font-family="sans-serif" font-size="17.2112" font-weight="bold" lengthAdjust="spacing" textLength="28.6853" x="246.6932" y="577.0723">Idle</text><text fill="#333333" font-family="sans-serif" font-size="17.2112" font-weight="bold" lengthAdjust="spacing" textLength="147.7291" x="438.1673" y="577.0723">ValidatingRequest</text><text fill="#333333" font-family="sans-serif" font-size="17.2112" font-weight="bold" lengthAdjust="spacing" textLength="113.3068" x="885.6574" y="577.0723">Authenticated</text><text fill="#333333" font-family="sans-serif" font-size="17.2112" font-weight="bold" lengthAdjust="spacing" textLength="163.506" x="1239.2032" y="577.0723">TerminatingSession</text><line style="stroke:#333333;stroke-width:0.7171314741035856;" x1="14.3426" x2="1702.4701" y1="601.5837" y2="601.5837"/><text fill="#333333" font-family="sans-serif" font-size="20.0797" font-weight="bold" lengthAdjust="spacing" textLength="123.3466" x="50.1992" y="651.1134">AuthService</text><line style="stroke:#333333;stroke-width:0.7171314741035856;" x1="14.3426" x2="203.6653" y1="685.6449" y2="685.6449"/><line style="stroke:#333333;stroke-width:0.7171314741035856;" x1="203.6653" x2="218.008" y1="685.6449" y2="601.5837"/><polygon fill="#E2E2F0" points="206.5339,692.8162,387.251,692.8162,404.4622,710.0274,387.251,727.2385,206.5339,727.2385,189.3227,710.0274" style="stroke:#006400;stroke-width:2.151394422310757;"/><polygon fill="#E2E2F0" points="421.6733,692.8162,530.6773,692.8162,547.8884,710.0274,530.6773,727.2385,421.6733,727.2385,404.4622,710.0274" style="stroke:#006400;stroke-width:2.151394422310757;"/><polygon fill="#E2E2F0" points="565.0996,692.8162,602.3904,692.8162,619.6016,710.0274,602.3904,727.2385,565.0996,727.2385,547.8884,710.0274" style="stroke:#006400;stroke-width:2.151394422310757;"/><polygon fill="#E2E2F0" points="636.8127,692.8162,1462.9482,692.8162,1480.1594,710.0274,1462.9482,727.2385,636.8127,727.2385,619.6016,710.0274" style="stroke:#006400;stroke-width:2.151394422310757;"/><polygon fill="#E2E2F0" points="1497.3705,692.8162,1695.2988,692.8162,1695.2988,727.2385,1497.3705,727.2385,1480.1594,710.0274" style="stroke:#E2E2F0;stroke-width:2.151394422310757;"/><path d="M1695.2988,692.8162 L1497.3705,692.8162 L1480.1594,710.0274 L1497.3705,727.2385 L1695.2988,727.2385 " fill="#E2E2F0" style="stroke:#006400;stroke-width:2.151394422310757;"/><text fill="#333333" font-family="sans-serif" font-size="17.2112" font-weight="bold" lengthAdjust="spacing" textLength="28.6853" x="282.5498" y="717.0698">Idle</text><text fill="#333333" font-family="sans-serif" font-size="17.2112" font-weight="bold" lengthAdjust="spacing" textLength="71.7131" x="440.3187" y="717.0698">Verifying</text><text fill="#333333" font-family="sans-serif" font-size="17.2112" font-weight="bold" lengthAdjust="spacing" textLength="93.2271" x="537.1315" y="717.0698">Processing</text><text fill="#333333" font-family="sans-serif" font-size="17.2112" font-weight="bold" lengthAdjust="spacing" textLength="129.0837" x="985.3386" y="717.0698">DecisionMaking</text><text fill="#333333" font-family="sans-serif" font-size="17.2112" font-weight="bold" lengthAdjust="spacing" textLength="91.7928" x="1526.0558" y="717.0698">Invalidating</text><line style="stroke:#333333;stroke-width:0.7171314741035856;" x1="14.3426" x2="1702.4701" y1="741.5812" y2="741.5812"/><text fill="#333333" font-family="sans-serif" font-size="20.0797" font-weight="bold" lengthAdjust="spacing" textLength="93.2271" x="50.1992" y="791.1109">Database</text><line style="stroke:#333333;stroke-width:0.7171314741035856;" x1="14.3426" x2="173.5458" y1="825.6424" y2="825.6424"/><line style="stroke:#333333;stroke-width:0.7171314741035856;" x1="173.5458" x2="187.8884" y1="825.6424" y2="741.5812"/><polygon fill="#E2E2F0" points="206.5339,832.8137,458.9641,832.8137,476.1753,850.0249,458.9641,867.2361,206.5339,867.2361,189.3227,850.0249" style="stroke:#006400;stroke-width:2.151394422310757;"/><polygon fill="#E2E2F0" points="493.3865,832.8137,530.6773,832.8137,547.8884,850.0249,530.6773,867.2361,493.3865,867.2361,476.1753,850.0249" style="stroke:#006400;stroke-width:2.151394422310757;"/><polygon fill="#E2E2F0" points="565.0996,832.8137,817.5299,832.8137,834.741,850.0249,817.5299,867.2361,565.0996,867.2361,547.8884,850.0249" style="stroke:#006400;stroke-width:2.151394422310757;"/><polygon fill="#E2E2F0" points="851.9522,832.8137,889.243,832.8137,906.4542,850.0249,889.243,867.2361,851.9522,867.2361,834.741,850.0249" style="stroke:#006400;stroke-width:2.151394422310757;"/><polygon fill="#E2E2F0" points="923.6653,832.8137,1319.5219,832.8137,1336.7331,850.0249,1319.5219,867.2361,923.6653,867.2361,906.4542,850.0249" style="stroke:#006400;stroke-width:2.151394422310757;"/><polygon fill="#E2E2F0" points="1353.9442,832.8137,1391.2351,832.8137,1408.4462,850.0249,1391.2351,867.2361,1353.9442,867.2361,1336.7331,850.0249" style="stroke:#006400;stroke-width:2.151394422310757;"/><polygon fill="#E2E2F0" points="1425.6574,832.8137,1695.2988,832.8137,1695.2988,867.2361,1425.6574,867.2361,1408.4462,850.0249" style="stroke:#E2E2F0;stroke-width:2.151394422310757;"/><path d="M1695.2988,832.8137 L1425.6574,832.8137 L1408.4462,850.0249 L1425.6574,867.2361 L1695.2988,867.2361 " fill="#E2E2F0" style="stroke:#006400;stroke-width:2.151394422310757;"/><text fill="#333333" font-family="sans-serif" font-size="17.2112" font-weight="bold" lengthAdjust="spacing" textLength="28.6853" x="318.4064" y="857.0674">Idle</text><text fill="#333333" font-family="sans-serif" font-size="17.2112" font-weight="bold" lengthAdjust="spacing" textLength="73.1474" x="475.4582" y="857.0674">Querying</text><text fill="#333333" font-family="sans-serif" font-size="17.2112" font-weight="bold" lengthAdjust="spacing" textLength="28.6853" x="676.9721" y="857.0674">Idle</text><text fill="#333333" font-family="sans-serif" font-size="17.2112" font-weight="bold" lengthAdjust="spacing" textLength="58.8048" x="841.1952" y="857.0674">Writing</text><text fill="#333333" font-family="sans-serif" font-size="17.2112" font-weight="bold" lengthAdjust="spacing" textLength="28.6853" x="1107.251" y="857.0674">Idle</text><text fill="#333333" font-family="sans-serif" font-size="17.2112" font-weight="bold" lengthAdjust="spacing" textLength="58.8048" x="1343.1873" y="857.0674">Writing</text><text fill="#333333" font-family="sans-serif" font-size="17.2112" font-weight="bold" lengthAdjust="spacing" textLength="28.6853" x="1454.3426" y="857.0674">Idle</text><line style="stroke:#333333;stroke-width:0.7171314741035856;" x1="14.3426" x2="1702.4701" y1="881.5787" y2="881.5787"/><text fill="#333333" font-family="sans-serif" font-size="20.0797" font-weight="bold" lengthAdjust="spacing" textLength="80.3187" x="50.1992" y="931.1084">Session</text><line style="stroke:#333333;stroke-width:0.7171314741035856;" x1="14.3426" x2="160.6375" y1="965.6399" y2="965.6399"/><line style="stroke:#333333;stroke-width:0.7171314741035856;" x1="160.6375" x2="174.9801" y1="965.6399" y2="881.5787"/><polygon fill="#E2E2F0" points="206.5339,972.8113,745.8167,972.8113,763.0279,990.0224,745.8167,1007.2336,206.5339,1007.2336,189.3227,990.0224" style="stroke:#006400;stroke-width:2.151394422310757;"/><polygon fill="#E2E2F0" points="780.239,972.8113,1247.8088,972.8113,1265.0199,990.0224,1247.8088,1007.2336,780.239,1007.2336,763.0279,990.0224" style="stroke:#006400;stroke-width:2.151394422310757;"/><polygon fill="#E2E2F0" points="1282.2311,972.8113,1695.2988,972.8113,1695.2988,1007.2336,1282.2311,1007.2336,1265.0199,990.0224" style="stroke:#E2E2F0;stroke-width:2.151394422310757;"/><path d="M1695.2988,972.8113 L1282.2311,972.8113 L1265.0199,990.0224 L1282.2311,1007.2336 L1695.2988,1007.2336 " fill="#E2E2F0" style="stroke:#006400;stroke-width:2.151394422310757;"/><text fill="#333333" font-family="sans-serif" font-size="17.2112" font-weight="bold" lengthAdjust="spacing" textLength="91.7928" x="430.2789" y="997.0649">NotCreated</text><text fill="#333333" font-family="sans-serif" font-size="17.2112" font-weight="bold" lengthAdjust="spacing" textLength="50.1992" x="988.9243" y="997.0649">Active</text><text fill="#333333" font-family="sans-serif" font-size="17.2112" font-weight="bold" lengthAdjust="spacing" textLength="93.2271" x="1310.9163" y="997.0649">Terminated</text><line style="stroke:#333333;stroke-width:2.8685258964143423;" x1="189.3227" x2="189.3227" y1="1021.5762" y2="1028.7475"/><line style="stroke:#333333;stroke-width:2.8685258964143423;" x1="261.0359" x2="261.0359" y1="1021.5762" y2="1028.7475"/><line style="stroke:#333333;stroke-width:2.8685258964143423;" x1="332.749" x2="332.749" y1="1021.5762" y2="1028.7475"/><line style="stroke:#333333;stroke-width:2.8685258964143423;" x1="404.4622" x2="404.4622" y1="1021.5762" y2="1028.7475"/><line style="stroke:#333333;stroke-width:2.8685258964143423;" x1="476.1753" x2="476.1753" y1="1021.5762" y2="1028.7475"/><line style="stroke:#333333;stroke-width:2.8685258964143423;" x1="547.8884" x2="547.8884" y1="1021.5762" y2="1028.7475"/><line style="stroke:#333333;stroke-width:2.8685258964143423;" x1="619.6016" x2="619.6016" y1="1021.5762" y2="1028.7475"/><line style="stroke:#333333;stroke-width:2.8685258964143423;" x1="691.3147" x2="691.3147" y1="1021.5762" y2="1028.7475"/><line style="stroke:#333333;stroke-width:2.8685258964143423;" x1="763.0279" x2="763.0279" y1="1021.5762" y2="1028.7475"/><line style="stroke:#333333;stroke-width:2.8685258964143423;" x1="834.741" x2="834.741" y1="1021.5762" y2="1028.7475"/><line style="stroke:#333333;stroke-width:2.8685258964143423;" x1="906.4542" x2="906.4542" y1="1021.5762" y2="1028.7475"/><line style="stroke:#333333;stroke-width:2.8685258964143423;" x1="978.1673" x2="978.1673" y1="1021.5762" y2="1028.7475"/><line style="stroke:#333333;stroke-width:2.8685258964143423;" x1="1049.8805" x2="1049.8805" y1="1021.5762" y2="1028.7475"/><line style="stroke:#333333;stroke-width:2.8685258964143423;" x1="1121.5936" x2="1121.5936" y1="1021.5762" y2="1028.7475"/><line style="stroke:#333333;stroke-width:2.8685258964143423;" x1="1193.3068" x2="1193.3068" y1="1021.5762" y2="1028.7475"/><line style="stroke:#333333;stroke-width:2.8685258964143423;" x1="1265.0199" x2="1265.0199" y1="1021.5762" y2="1028.7475"/><line style="stroke:#333333;stroke-width:2.8685258964143423;" x1="1336.7331" x2="1336.7331" y1="1021.5762" y2="1028.7475"/><line style="stroke:#333333;stroke-width:2.8685258964143423;" x1="1408.4462" x2="1408.4462" y1="1021.5762" y2="1028.7475"/><line style="stroke:#333333;stroke-width:2.8685258964143423;" x1="1480.1594" x2="1480.1594" y1="1021.5762" y2="1028.7475"/><line style="stroke:#333333;stroke-width:2.8685258964143423;" x1="1551.8725" x2="1551.8725" y1="1021.5762" y2="1028.7475"/><line style="stroke:#333333;stroke-width:2.8685258964143423;" x1="1623.5857" x2="1623.5857" y1="1021.5762" y2="1028.7475"/><line style="stroke:#333333;stroke-width:2.8685258964143423;" x1="1695.2988" x2="1695.2988" y1="1021.5762" y2="1028.7475"/><line style="stroke:#333333;stroke-width:2.8685258964143423;" x1="189.3227" x2="1695.2988" y1="1021.5762" y2="1021.5762"/><text fill="#333333" font-family="sans-serif" font-size="15.7769" lengthAdjust="spacing" textLength="8.6056" x="185.0199" y="1075.2448">0</text><text fill="#333333" font-family="sans-serif" font-size="15.7769" lengthAdjust="spacing" textLength="8.6056" x="256.7331" y="1075.2448">1</text><text fill="#333333" font-family="sans-serif" font-size="15.7769" lengthAdjust="spacing" textLength="8.6056" x="328.4462" y="1075.2448">2</text><text fill="#333333" font-family="sans-serif" font-size="15.7769" lengthAdjust="spacing" textLength="8.6056" x="400.1594" y="1075.2448">3</text><text fill="#333333" font-family="sans-serif" font-size="15.7769" lengthAdjust="spacing" textLength="8.6056" x="471.8725" y="1075.2448">4</text><text fill="#333333" font-family="sans-serif" font-size="15.7769" lengthAdjust="spacing" textLength="8.6056" x="543.5857" y="1075.2448">5</text><text fill="#333333" font-family="sans-serif" font-size="15.7769" lengthAdjust="spacing" textLength="8.6056" x="615.2988" y="1075.2448">6</text><text fill="#333333" font-family="sans-serif" font-size="15.7769" lengthAdjust="spacing" textLength="8.6056" x="687.012" y="1075.2448">7</text><text fill="#333333" font-family="sans-serif" font-size="15.7769" lengthAdjust="spacing" textLength="8.6056" x="758.7251" y="1075.2448">8</text><text fill="#333333" font-family="sans-serif" font-size="15.7769" lengthAdjust="spacing" textLength="8.6056" x="830.4382" y="1075.2448">9</text><text fill="#333333" font-family="sans-serif" font-size="15.7769" lengthAdjust="spacing" textLength="17.2112" x="897.8486" y="1075.2448">10</text><text fill="#333333" font-family="sans-serif" font-size="15.7769" lengthAdjust="spacing" textLength="17.2112" x="969.5618" y="1075.2448">11</text><text fill="#333333" font-family="sans-serif" font-size="15.7769" lengthAdjust="spacing" textLength="17.2112" x="1041.2749" y="1075.2448">12</text><text fill="#333333" font-family="sans-serif" font-size="15.7769" lengthAdjust="spacing" textLength="17.2112" x="1112.988" y="1075.2448">13</text><text fill="#333333" font-family="sans-serif" font-size="15.7769" lengthAdjust="spacing" textLength="17.2112" x="1184.7012" y="1075.2448">14</text><text fill="#333333" font-family="sans-serif" font-size="15.7769" lengthAdjust="spacing" textLength="17.2112" x="1256.4143" y="1075.2448">15</text><text fill="#333333" font-family="sans-serif" font-size="15.7769" lengthAdjust="spacing" textLength="17.2112" x="1328.1275" y="1075.2448">16</text><text fill="#333333" font-family="sans-serif" font-size="15.7769" lengthAdjust="spacing" textLength="17.2112" x="1399.8406" y="1075.2448">17</text><text fill="#333333" font-family="sans-serif" font-size="15.7769" lengthAdjust="spacing" textLength="17.2112" x="1471.5538" y="1075.2448">18</text><text fill="#333333" font-family="sans-serif" font-size="15.7769" lengthAdjust="spacing" textLength="17.2112" x="1543.2669" y="1075.2448">19</text><text fill="#333333" font-family="sans-serif" font-size="15.7769" lengthAdjust="spacing" textLength="17.2112" x="1614.9801" y="1075.2448">20</text><line style="stroke:#00008B;stroke-width:2.151394422310757;" x1="261.0359" x2="261.0359" y1="304.3775" y2="430.0324"/><polygon fill="#00008B" points="257.1115,419.2502,264.9602,419.2502,261.0359,430.0324" style="stroke:#00008B;stroke-width:2.151394422310757;"/><text fill="#00008B" font-family="Serif" font-size="20.0797" lengthAdjust="spacing" textLength="137.6892" x="289.7211" y="386.1529">Enter Credentials</text><line style="stroke:#00008B;stroke-width:2.151394422310757;" x1="332.749" x2="332.749" y1="447.2435" y2="570.0299"/><polygon fill="#00008B" points="328.8246,559.2478,336.6734,559.2478,332.749,570.0299" style="stroke:#00008B;stroke-width:2.151394422310757;"/><text fill="#00008B" font-family="Serif" font-size="20.0797" lengthAdjust="spacing" textLength="110.4382" x="361.4343" y="526.1505">authenticate()</text><line style="stroke:#00008B;stroke-width:2.151394422310757;" x1="404.4622" x2="404.4622" y1="587.241" y2="710.0274"/><polygon fill="#00008B" points="400.5378,699.2453,408.3865,699.2453,404.4622,710.0274" style="stroke:#00008B;stroke-width:2.151394422310757;"/><text fill="#00008B" font-family="Serif" font-size="20.0797" lengthAdjust="spacing" textLength="163.506" x="433.1474" y="666.148">validateCredentials()</text><line style="stroke:#00008B;stroke-width:2.151394422310757;" x1="476.1753" x2="476.1753" y1="727.2385" y2="850.0249"/><polygon fill="#00008B" points="472.2509,839.2428,480.0997,839.2428,476.1753,850.0249" style="stroke:#00008B;stroke-width:2.151394422310757;"/><text fill="#00008B" font-family="Serif" font-size="20.0797" lengthAdjust="spacing" textLength="93.2271" x="504.8606" y="806.1455">fetchUser()</text><line style="stroke:#00008B;stroke-width:2.151394422310757;" x1="547.8884" x2="547.8884" y1="850.0249" y2="710.0274"/><polygon fill="#00008B" points="551.8128,720.8095,543.9641,720.8095,547.8884,710.0274" style="stroke:#00008B;stroke-width:2.151394422310757;"/><text fill="#00008B" font-family="Serif" font-size="20.0797" lengthAdjust="spacing" textLength="73.1474" x="576.5737" y="770.5353">user data</text><line style="stroke:#00008B;stroke-width:2.151394422310757;" x1="619.6016" x2="619.6016" y1="710.0274" y2="710.0274"/><polygon fill="#00008B" points="615.6772,699.2453,623.526,699.2453,619.6016,710.0274" style="stroke:#00008B;stroke-width:2.151394422310757;"/><text fill="#00008B" font-family="Serif" font-size="20.0797" lengthAdjust="spacing" textLength="141.992" x="648.2869" y="748.971">verifyPassword()</text><line style="stroke:#00008B;stroke-width:2.151394422310757;" x1="691.3147" x2="691.3147" y1="692.8162" y2="570.0299"/><polygon fill="#00008B" points="695.2391,580.812,687.3904,580.812,691.3147,570.0299" style="stroke:#00008B;stroke-width:2.151394422310757;"/><text fill="#00008B" font-family="Serif" font-size="20.0797" lengthAdjust="spacing" textLength="117.6096" x="720" y="630.5378">success + role</text><line style="stroke:#00008B;stroke-width:2.151394422310757;" x1="763.0279" x2="763.0279" y1="587.241" y2="990.0224"/><polygon fill="#00008B" points="759.1035,979.2403,766.9523,979.2403,763.0279,990.0224" style="stroke:#00008B;stroke-width:2.151394422310757;"/><text fill="#00008B" font-family="Serif" font-size="20.0797" lengthAdjust="spacing" textLength="124.7809" x="791.7131" y="946.143">createSession()</text><line style="stroke:#00008B;stroke-width:2.151394422310757;" x1="834.741" x2="834.741" y1="972.8113" y2="850.0249"/><polygon fill="#00008B" points="838.6654,860.807,830.8167,860.807,834.741,850.0249" style="stroke:#00008B;stroke-width:2.151394422310757;"/><text fill="#00008B" font-family="Serif" font-size="20.0797" lengthAdjust="spacing" textLength="104.7012" x="863.4263" y="910.5328">store session</text><line style="stroke:#00008B;stroke-width:2.151394422310757;" x1="906.4542" x2="906.4542" y1="850.0249" y2="972.8113"/><polygon fill="#00008B" points="902.5298,962.0291,910.3786,962.0291,906.4542,972.8113" style="stroke:#00008B;stroke-width:2.151394422310757;"/><text fill="#00008B" font-family="Serif" font-size="20.0797" lengthAdjust="spacing" textLength="50.1992" x="935.1394" y="928.9318">stored</text><line style="stroke:#00008B;stroke-width:2.151394422310757;" x1="978.1673" x2="978.1673" y1="552.8187" y2="430.0324"/><polygon fill="#00008B" points="982.0917,440.8145,974.243,440.8145,978.1673,430.0324" style="stroke:#00008B;stroke-width:2.151394422310757;"/><text fill="#00008B" font-family="Serif" font-size="20.0797" lengthAdjust="spacing" textLength="109.004" x="1006.8526" y="490.5403">login success</text><line style="stroke:#00008B;stroke-width:2.151394422310757;" x1="1049.8805" x2="1049.8805" y1="412.8212" y2="275.6922"/><polygon fill="#00008B" points="1053.8049,286.4744,1045.9561,286.4744,1049.8805,275.6922" style="stroke:#00008B;stroke-width:2.151394422310757;"/><text fill="#00008B" font-family="Serif" font-size="20.0797" lengthAdjust="spacing" textLength="133.3865" x="1078.5657" y="336.2001">show dashboard</text><line style="stroke:#00008B;stroke-width:2.151394422310757;" x1="1121.5936" x2="1121.5936" y1="247.007" y2="430.0324"/><polygon fill="#00008B" points="1117.6693,419.2502,1125.518,419.2502,1121.5936,430.0324" style="stroke:#00008B;stroke-width:2.151394422310757;"/><text fill="#00008B" font-family="Serif" font-size="20.0797" lengthAdjust="spacing" textLength="57.3705" x="1150.2789" y="386.1529">Logout</text><line style="stroke:#00008B;stroke-width:2.151394422310757;" x1="1193.3068" x2="1193.3068" y1="447.2435" y2="570.0299"/><polygon fill="#00008B" points="1189.3824,559.2478,1197.2311,559.2478,1193.3068,570.0299" style="stroke:#00008B;stroke-width:2.151394422310757;"/><text fill="#00008B" font-family="Serif" font-size="20.0797" lengthAdjust="spacing" textLength="64.5418" x="1221.992" y="526.1505">logout()</text><line style="stroke:#00008B;stroke-width:2.151394422310757;" x1="1265.0199" x2="1265.0199" y1="587.241" y2="990.0224"/><polygon fill="#00008B" points="1261.0955,979.2403,1268.9443,979.2403,1265.0199,990.0224" style="stroke:#00008B;stroke-width:2.151394422310757;"/><text fill="#00008B" font-family="Serif" font-size="20.0797" lengthAdjust="spacing" textLength="88.9243" x="1293.7052" y="946.143">terminate()</text><line style="stroke:#00008B;stroke-width:2.151394422310757;" x1="1336.7331" x2="1336.7331" y1="972.8113" y2="850.0249"/><polygon fill="#00008B" points="1340.6574,860.807,1332.8087,860.807,1336.7331,850.0249" style="stroke:#00008B;stroke-width:2.151394422310757;"/><text fill="#00008B" font-family="Serif" font-size="20.0797" lengthAdjust="spacing" textLength="149.1633" x="1365.4183" y="910.5328">update logout time</text><line style="stroke:#00008B;stroke-width:2.151394422310757;" x1="1408.4462" x2="1408.4462" y1="850.0249" y2="972.8113"/><polygon fill="#00008B" points="1404.5218,962.0291,1412.3706,962.0291,1408.4462,972.8113" style="stroke:#00008B;stroke-width:2.151394422310757;"/><text fill="#00008B" font-family="Serif" font-size="20.0797" lengthAdjust="spacing" textLength="63.1076" x="1437.1315" y="928.9318">updated</text><line style="stroke:#00008B;stroke-width:2.151394422310757;" x1="1480.1594" x2="1480.1594" y1="587.241" y2="710.0274"/><polygon fill="#00008B" points="1476.235,699.2453,1484.0837,699.2453,1480.1594,710.0274" style="stroke:#00008B;stroke-width:2.151394422310757;"/><text fill="#00008B" font-family="Serif" font-size="20.0797" lengthAdjust="spacing" textLength="140.5578" x="1508.8446" y="666.148">invalidateToken()</text><line style="stroke:#00008B;stroke-width:2.151394422310757;" x1="1551.8725" x2="1551.8725" y1="552.8187" y2="430.0324"/><polygon fill="#00008B" points="1555.7969,440.8145,1547.9481,440.8145,1551.8725,430.0324" style="stroke:#00008B;stroke-width:2.151394422310757;"/><text fill="#00008B" font-family="Serif" font-size="20.0797" lengthAdjust="spacing" textLength="106.1355" x="1580.5578" y="490.5403">redirect login</text><line style="stroke:#00008B;stroke-width:2.151394422310757;" x1="1623.5857" x2="1623.5857" y1="412.8212" y2="304.3775"/><polygon fill="#00008B" points="1627.51,315.1596,1619.6613,315.1596,1623.5857,304.3775" style="stroke:#00008B;stroke-width:2.151394422310757;"/><text fill="#00008B" font-family="Serif" font-size="20.0797" lengthAdjust="spacing" textLength="131.9522" x="1652.2709" y="364.8854">show login page</text><!--SRC=[XLLTRnev57sVNt6LIjj4LIHeapQ9r5Mc0sb7OWdD34ttqTWNi9ZOhEs1zj_lzOm7d4GxomCoz_kUSsoST1N2MDJ5Teq6uHnA-IJL2aQIhGnxWjEqTcjKJdBcf5Rm1nHehJzDv1BvRrxXMPAy_VmVd-Gj5ENVap6S5hCqowTVuIx_UTOJRpTIRPdll61yipAwLYBJbJRmvgxvH15hfiJUIETGmP9L5caGo1Kto2o2tg5XLGMSgHspi9V2hHFB6Uqxl1eCWe4oKY5WGJbkxHUtMyOH5kZsI6MnmYVQtaPTbHPeSGkNWyXecDfuuqLit38XVCdtiL7WajMLA_6NIokvKhuySFf2qu_ZB7qeyooVfTEow0aqUb5R1oTpY-O4QF5vmhNYaX0vcUUj9J-QFBsPLixegWe9QVRSNQ3PIOwjhpZwHion1I7TE4PVZewWaCPUz2-LJ_CoJoSaahGSzwrrEqZc82taei9adllZ8vEEu4tIxE18YyDnzELmR8nJxJ9FCeh-YIRtN_CfF8o_pyT5sJVGa0Ow_vF0X1iOU_g0wWj_LKYAxR3ntQ51sx5dHdCF41cIs_VUI5LeXnjWnt0yFGjx_M2L54t-0_vJetMKzS7xV5P1MRis0AFkFhbP-WSQkVpTjhhmDaeYO6vWYOwllKGej4NgUuqcH5vwqtbNlwOee0OiXhGj_soLZw5-ErJJUCQitMiZ3lECa1H2qlYBRPgatdTZdcNZeY3Tbz_wUFZKzEqmj3Nt8y4x84LZm33YmTD_UnNmyvFoHXH1iZHeCsVAdTpHSt9xdHmniqxJ2sdRo036esarI78OTAWLNQo84QE8OTEsqqobLr9rymPjZ9XTBpGpOgAP27LRYVWiNtUjzqH6Y6fLDj6h5OfS_Q-kx-Sbt4tk7tjL_I6IDLNMjJjseOdk_U_NEXvUn4Akcho3X4iqz9_IQ3ZWx3Ck8n9SYC2EW2wbeMluCMAXtdgnXnRWv1E-fk9JJ4MRy9ABg_WAITLTeb9lK1tacdVsKFVw6O54i3J8NSlaYqU9hlRW5N4jvLksmkWn-nS0]--></g></svg>